<?xml version="1.0" standalone="no"?>
<!DOCTYPE svg PUBLIC "-//W3C//DTD SVG 20010904//EN"
 "http://www.w3.org/TR/2001/REC-SVG-20010904/DTD/svg10.dtd">
<svg version="1.0" xmlns="http://www.w3.org/2000/svg"
 width="512.000000pt" height="512.000000pt" viewBox="0 0 512.000000 512.000000"
 preserveAspectRatio="xMidYMid meet">

<g transform="translate(0.000000,512.000000) scale(0.100000,-0.100000)"
fill="#000000" stroke="none">
<path d="M413 5106 c-193 -47 -353 -209 -399 -402 -41 -175 25 -389 157 -508
l39 -36 -39 -36 c-93 -84 -159 -224 -168 -359 -10 -149 41 -284 149 -400 l57
-61 -54 -53 c-238 -236 -192 -633 96 -821 122 -79 69 -75 1029 -75 816 0 858
1 914 19 210 69 366 285 366 506 0 130 -62 279 -155 372 l-53 53 59 62 c67 73
122 178 140 271 32 168 -36 373 -162 487 l-41 37 40 34 c89 75 158 218 169
349 21 256 -157 500 -409 560 -86 20 -1652 21 -1735 1z m1737 -227 c79 -37
125 -81 162 -157 28 -56 32 -76 32 -137 -1 -124 -69 -231 -180 -286 l-49 -24
-835 0 -835 0 -49 24 c-154 76 -224 262 -155 411 33 71 70 114 127 147 89 53
78 52 932 50 l795 -2 55 -26z m-6 -850 c33 -12 74 -38 101 -65 161 -156 121
-414 -77 -514 l-61 -30 -827 0 -827 0 -61 30 c-251 126 -229 488 36 585 30 11
187 14 849 14 797 1 813 1 867 -20z m14 -858 c109 -49 186 -170 186 -291 0
-121 -77 -242 -186 -291 l-53 -24 -825 0 -825 0 -52 24 c-130 58 -211 212
-183 348 7 32 19 71 27 87 21 41 92 115 127 133 80 42 78 42 921 40 l810 -2
53 -24z"/>
<path d="M459 4661 c-47 -48 -37 -130 21 -164 22 -14 55 -17 160 -17 105 0
138 3 160 17 58 34 68 116 21 164 l-29 29 -152 0 -152 0 -29 -29z"/>
<path d="M1099 4661 c-47 -48 -37 -130 21 -164 22 -14 55 -17 160 -17 105 0
138 3 160 17 58 34 68 116 21 164 l-29 29 -152 0 -152 0 -29 -29z"/>
<path d="M478 3823 c-56 -35 -66 -117 -19 -164 l29 -29 152 0 152 0 29 29 c33
33 39 83 15 130 -23 43 -54 51 -199 51 -105 0 -137 -4 -159 -17z"/>
<path d="M1118 3823 c-56 -35 -66 -117 -19 -164 l29 -29 152 0 152 0 29 29
c33 33 39 83 15 130 -23 43 -54 51 -199 51 -105 0 -137 -4 -159 -17z"/>
<path d="M494 2976 c-41 -18 -64 -52 -64 -96 0 -82 53 -110 210 -110 157 0
210 28 210 110 0 45 -23 78 -66 96 -45 19 -247 18 -290 0z"/>
<path d="M1134 2976 c-41 -18 -64 -52 -64 -96 0 -82 53 -110 210 -110 157 0
210 28 210 110 0 45 -23 78 -66 96 -45 19 -247 18 -290 0z"/>
<path d="M3795 4574 c-42 -21 -352 -332 -371 -372 -29 -62 -16 -82 169 -269
93 -95 185 -179 204 -188 83 -39 175 46 142 131 -5 15 -42 60 -81 100 l-71 74
111 0 c88 0 123 -4 166 -21 71 -26 139 -92 174 -167 24 -52 26 -72 31 -223 7
-185 11 -198 76 -219 45 -15 98 7 120 51 26 49 17 350 -13 431 -44 122 -116
213 -216 277 -99 62 -170 82 -318 88 l-128 6 74 77 c82 86 96 121 70 175 -15
31 -64 65 -96 65 -7 0 -26 -7 -43 -16z"/>
<path d="M2960 2756 c-281 -80 -450 -358 -385 -635 21 -89 77 -189 140 -252
l54 -53 -57 -61 c-108 -116 -159 -251 -149 -400 9 -135 75 -275 168 -359 l39
-36 -39 -36 c-93 -84 -159 -224 -168 -359 -10 -154 42 -290 157 -406 71 -72
173 -128 268 -148 36 -7 311 -11 855 -11 672 0 812 3 865 15 252 60 430 304
409 560 -11 130 -78 268 -168 350 l-41 37 40 34 c22 18 57 60 78 91 140 212
118 480 -55 666 l-59 62 53 53 c63 63 119 164 140 253 61 258 -86 525 -340
622 l-60 22 -850 2 c-664 1 -860 -1 -895 -11z m1758 -225 c109 -49 186 -170
186 -291 0 -121 -77 -242 -186 -291 l-53 -24 -825 0 -825 0 -52 24 c-130 58
-211 212 -183 348 7 32 19 71 27 87 21 41 92 115 127 133 80 42 78 42 921 40
l810 -2 53 -24z m10 -861 c237 -119 234 -454 -4 -571 l-49 -24 -835 0 -835 0
-49 24 c-239 118 -241 452 -4 571 l61 30 827 0 827 0 61 -30z m-24 -841 c118
-43 199 -163 200 -294 0 -61 -4 -81 -32 -137 -37 -76 -83 -120 -162 -157 l-55
-26 -815 0 -815 0 -55 26 c-79 37 -125 81 -162 157 -28 56 -32 76 -32 136 1
107 48 201 131 257 87 60 47 58 930 58 797 1 813 1 867 -20z"/>
<path d="M3054 2336 c-41 -18 -64 -52 -64 -96 0 -82 53 -110 210 -110 157 0
210 28 210 110 0 45 -23 78 -66 96 -45 19 -247 18 -290 0z"/>
<path d="M3694 2336 c-41 -18 -64 -52 -64 -96 0 -82 53 -110 210 -110 157 0
210 28 210 110 0 45 -23 78 -66 96 -45 19 -247 18 -290 0z"/>
<path d="M3019 1461 c-47 -48 -37 -130 21 -164 41 -25 279 -25 320 0 58 34 68
116 21 164 l-29 29 -152 0 -152 0 -29 -29z"/>
<path d="M3659 1461 c-47 -48 -37 -130 21 -164 41 -25 279 -25 320 0 58 34 68
116 21 164 l-29 29 -152 0 -152 0 -29 -29z"/>
<path d="M3038 623 c-56 -35 -66 -117 -19 -164 l29 -29 152 0 152 0 29 29 c33
33 39 83 15 130 -23 43 -54 51 -199 51 -105 0 -137 -4 -159 -17z"/>
<path d="M3678 623 c-56 -35 -66 -117 -19 -164 l29 -29 152 0 152 0 29 29 c33
33 39 83 15 130 -23 43 -54 51 -199 51 -105 0 -137 -4 -159 -17z"/>
<path d="M703 1695 c-58 -25 -66 -56 -61 -249 4 -150 8 -179 29 -236 53 -141
138 -234 273 -300 90 -44 168 -59 305 -60 l84 0 -76 -79 c-46 -48 -77 -90 -82
-109 -15 -70 57 -142 128 -126 24 5 78 52 204 177 95 93 179 185 188 204 31
64 19 82 -179 279 -197 198 -215 210 -280 179 -43 -21 -70 -73 -61 -117 5 -19
36 -61 83 -110 l76 -80 -124 4 c-108 3 -132 6 -174 27 -66 33 -122 91 -154
160 -24 51 -27 70 -32 222 -5 181 -9 191 -67 216 -39 16 -40 16 -80 -2z"/>
</g>
</svg>
