<?xml version="1.0" standalone="no"?>
<!DOCTYPE svg PUBLIC "-//W3C//DTD SVG 20010904//EN"
 "http://www.w3.org/TR/2001/REC-SVG-20010904/DTD/svg10.dtd">
<svg version="1.0" xmlns="http://www.w3.org/2000/svg"
 width="512.000000pt" height="512.000000pt" viewBox="0 0 512.000000 512.000000"
 preserveAspectRatio="xMidYMid meet">

<g transform="translate(0.000000,512.000000) scale(0.100000,-0.100000)"
fill="#000000" stroke="none">
<path d="M105 5106 c-37 -17 -80 -62 -94 -99 -7 -18 -11 -150 -11 -360 0 -373
0 -373 73 -431 l39 -31 576 -3 c318 -2 596 0 620 3 50 7 108 53 128 102 20 47
20 680 0 726 -16 39 -61 82 -99 96 -45 17 -1193 14 -1232 -3z m1175 -456 l0
-300 -555 0 -555 0 0 300 0 300 555 0 555 0 0 -300z"/>
<path d="M390 4767 c-52 -26 -60 -89 -18 -134 20 -21 30 -23 140 -23 113 0
120 1 143 25 42 41 31 105 -22 133 -29 16 -211 15 -243 -1z"/>
<path d="M1721 5102 c-19 -9 -48 -34 -65 -55 l-31 -39 -3 -331 c-2 -215 0
-345 7 -368 15 -51 48 -88 95 -110 39 -18 83 -19 836 -19 753 0 797 1 836 19
47 22 80 59 95 110 7 23 9 153 7 368 l-3 331 -31 39 c-62 78 -2 73 -904 73
-747 0 -807 -1 -839 -18z m1609 -452 l0 -300 -770 0 -770 0 0 300 0 300 770 0
770 0 0 -300z"/>
<path d="M2012 4770 c-31 -13 -55 -71 -43 -104 21 -53 35 -56 296 -56 229 0
242 1 263 20 46 43 37 109 -18 137 -30 15 -461 17 -498 3z"/>
<path d="M3775 5106 c-37 -17 -80 -62 -94 -99 -17 -45 -15 -679 3 -720 20 -49
78 -95 128 -102 24 -3 302 -5 620 -3 l576 3 39 31 c73 58 73 58 73 432 0 361
-1 373 -56 424 -16 15 -42 32 -57 37 -45 17 -1193 14 -1232 -3z m1175 -456 l0
-300 -555 0 -555 0 0 300 0 300 555 0 555 0 0 -300z"/>
<path d="M4572 4770 c-31 -13 -55 -71 -43 -104 16 -42 49 -56 126 -56 64 0 74
3 95 25 31 33 32 87 2 117 -17 18 -36 23 -89 25 -38 2 -78 -2 -91 -7z"/>
<path d="M105 3996 c-37 -17 -80 -62 -94 -99 -15 -39 -15 -676 0 -714 15 -40
48 -73 94 -94 38 -18 82 -19 778 -19 l737 0 0 -255 0 -255 -85 0 -85 0 0 103
c0 128 -21 178 -90 214 l-43 23 -592 0 -592 0 -43 -23 c-30 -16 -51 -37 -67
-67 l-24 -45 3 -346 3 -346 28 -36 c56 -74 40 -72 539 -75 l448 -3 0 -84 0
-85 -443 0 -444 0 -43 -23 c-30 -16 -51 -37 -67 -67 l-24 -45 3 -346 3 -346
28 -36 c56 -74 40 -72 540 -75 l447 -3 0 -202 c1 -111 5 -232 9 -269 24 -182
165 -335 340 -368 74 -14 2308 -14 2382 0 175 33 316 186 340 368 4 37 8 158
9 269 l0 202 448 3 c499 3 483 1 539 75 l28 36 3 346 3 346 -24 45 c-16 30
-37 51 -67 67 l-43 23 -444 0 -443 0 0 85 0 84 448 3 c499 3 483 1 539 75 l28
36 3 346 3 346 -24 45 c-16 30 -37 51 -67 67 l-43 23 -592 0 -592 0 -43 -23
c-69 -36 -90 -86 -90 -214 l0 -103 -85 0 -85 0 0 255 0 255 738 0 c695 0 739
1 777 19 46 21 79 54 94 94 17 45 15 679 -3 720 -16 39 -61 82 -99 96 -20 8
-762 11 -2450 11 -2001 -1 -2427 -3 -2452 -14z m1656 -203 c-54 -61 -108 -171
-126 -258 -8 -38 -15 -121 -15 -182 l0 -113 -725 0 -725 0 0 300 0 300 816 0
816 0 -41 -47z m1220 37 c80 -15 157 -57 220 -119 66 -66 104 -142 119 -231 5
-37 10 -249 10 -492 l0 -428 -85 0 -84 0 -3 458 c-3 456 -3 457 -26 504 -13
27 -42 64 -65 83 -72 62 -97 65 -507 65 -410 0 -435 -3 -507 -65 -23 -19 -52
-56 -65 -83 -23 -47 -23 -48 -26 -504 l-3 -458 -84 0 -85 0 0 428 c0 243 5
455 10 492 6 36 23 90 37 120 52 107 180 207 293 229 64 13 786 13 851 1z
m1969 -290 l0 -300 -725 0 -725 0 0 113 c0 61 -7 144 -15 182 -18 87 -72 197
-126 258 l-41 47 816 0 816 0 0 -300z m-2011 -55 c16 -8 34 -28 40 -46 7 -22
11 -171 11 -455 l0 -424 -430 0 -430 0 0 424 c0 283 4 433 11 455 21 59 28 60
417 61 292 0 358 -3 381 -15z m-1659 -857 l0 -103 -40 -23 c-122 -70 -181
-163 -215 -344 l-5 -28 -425 0 -425 0 0 300 0 300 555 0 555 0 0 -102z m3670
-198 l0 -300 -424 0 c-465 0 -436 -4 -436 59 0 104 -111 267 -217 319 l-33 16
0 103 0 103 555 0 555 0 0 -300z m-1220 -51 c72 -15 129 -62 165 -134 l30 -60
0 -905 0 -905 -28 -57 c-34 -69 -84 -113 -151 -133 -74 -22 -2298 -22 -2372 0
-67 20 -117 64 -151 133 l-28 57 0 906 0 905 30 59 c36 69 87 113 152 131 64
17 2274 20 2353 3z m-2710 -1059 l0 -300 -425 0 -425 0 0 300 0 300 425 0 425
0 0 -300z m3930 0 l0 -300 -425 0 -425 0 0 300 0 300 425 0 425 0 0 -300z"/>
<path d="M390 3657 c-54 -28 -61 -99 -13 -137 24 -19 41 -20 264 -20 236 0
238 0 265 24 36 30 39 86 6 119 -22 21 -29 22 -260 25 -178 2 -243 -1 -262
-11z"/>
<path d="M374 2536 c-21 -18 -28 -32 -28 -61 0 -29 7 -43 28 -61 25 -22 36
-24 140 -24 109 0 114 1 140 26 28 29 35 77 13 105 -24 31 -56 39 -161 39 -96
0 -107 -2 -132 -24z"/>
<path d="M4554 2536 c-39 -33 -39 -89 0 -122 23 -20 38 -24 96 -24 58 0 73 4
96 24 21 18 28 32 28 61 0 29 -7 43 -28 61 -23 20 -38 24 -96 24 -58 0 -73 -4
-96 -24z"/>
<path d="M2425 2124 c-49 -8 -165 -44 -221 -69 -169 -75 -344 -250 -418 -418
-59 -131 -71 -192 -71 -357 0 -165 12 -226 71 -357 74 -168 249 -343 418 -418
130 -58 191 -70 356 -70 165 0 226 12 356 70 169 75 344 250 418 418 59 132
71 192 70 357 0 122 -4 168 -18 215 -67 219 -188 386 -362 498 -145 94 -256
127 -434 132 -74 2 -148 1 -165 -1z m297 -183 c309 -79 518 -346 518 -661 0
-374 -306 -680 -680 -680 -505 0 -831 528 -609 984 137 281 468 434 771 357z"/>
<path d="M2490 1696 c-105 -22 -199 -97 -243 -194 -16 -36 -21 -67 -22 -132 0
-77 3 -92 33 -152 37 -76 101 -138 167 -163 l43 -17 4 -110 c3 -106 4 -111 31
-134 36 -31 78 -31 114 0 27 23 28 28 31 134 l4 110 43 17 c66 25 130 87 167
163 30 60 33 76 33 152 0 72 -4 93 -28 141 -30 62 -93 126 -154 157 -32 17
-142 44 -162 41 -3 0 -31 -6 -61 -13z m152 -182 c78 -40 110 -152 66 -229 -34
-58 -80 -85 -145 -85 -65 0 -103 18 -140 67 -24 31 -28 46 -28 98 0 52 4 67
28 98 54 72 138 91 219 51z"/>
<path d="M374 1426 c-21 -18 -28 -32 -28 -61 0 -29 7 -43 28 -61 27 -24 29
-24 266 -24 237 0 239 0 266 24 21 18 28 32 28 61 0 29 -7 43 -28 61 -27 24
-29 24 -266 24 -237 0 -239 0 -266 -24z"/>
</g>
</svg>
