<?xml version="1.0" standalone="no"?>
<!DOCTYPE svg PUBLIC "-//W3C//DTD SVG 20010904//EN"
 "http://www.w3.org/TR/2001/REC-SVG-20010904/DTD/svg10.dtd">
<svg version="1.0" xmlns="http://www.w3.org/2000/svg"
 width="512.000000pt" height="512.000000pt" viewBox="0 0 512.000000 512.000000"
 preserveAspectRatio="xMidYMid meet">

<g transform="translate(0.000000,512.000000) scale(0.100000,-0.100000)"
fill="#000000" stroke="none">
<path d="M1183 5102 c-104 -37 -173 -116 -191 -221 -9 -48 -531 -1440 -631
-1680 -37 -88 -38 -101 -8 -74 12 12 42 32 67 45 l45 23 2065 3 c1136 1 2079
0 2096 -3 17 -3 57 -21 89 -40 32 -20 59 -34 61 -33 1 2 -11 35 -28 73 -68
160 -628 1640 -628 1661 0 81 -80 192 -169 236 l-46 23 -1335 2 c-1261 2
-1338 2 -1387 -15z m1070 -199 c158 -167 297 -329 297 -349 0 -31 -20 -44
-139 -89 -90 -34 -107 -44 -115 -68 -12 -33 4 -84 45 -142 46 -66 290 -326
354 -378 129 -105 171 -110 291 -38 93 55 127 66 166 48 40 -18 358 -376 358
-402 0 -34 -27 -50 -149 -89 -98 -32 -127 -37 -210 -37 -287 -2 -589 146 -885
431 -309 298 -487 616 -462 826 16 138 73 214 218 293 130 71 157 70 231 -6z"/>
<path d="M4792 3090 c41 -106 63 -151 66 -133 4 26 -34 117 -56 135 -13 11
-15 11 -10 -2z"/>
<path d="M286 3039 c-14 -29 -26 -64 -25 -78 0 -18 10 -1 29 48 16 41 28 76
26 78 -2 2 -15 -20 -30 -48z"/>
<path d="M468 2906 c-105 -28 -188 -120 -207 -230 -15 -80 -15 -873 0 -952 18
-99 81 -179 177 -222 34 -16 117 -17 975 -20 l937 -3 -2 -357 -3 -357 -180 -5
c-179 -5 -181 -5 -247 -38 -42 -21 -83 -51 -111 -82 l-45 -50 -731 0 -731 0 0
-205 0 -205 728 0 728 0 53 -55 c32 -33 80 -68 120 -88 l66 -32 555 0 555 0
60 24 c43 17 78 42 123 88 l64 63 729 0 729 0 0 205 0 205 -732 0 -731 0 -53
54 c-29 30 -79 67 -111 82 -56 28 -63 29 -240 32 l-183 4 0 359 0 358 943 3
c940 3 942 3 988 24 90 42 149 121 169 225 14 71 13 869 -1 945 -20 112 -103
202 -211 231 -75 19 -4108 18 -4180 -1z m3852 -706 l0 -110 -405 0 -405 0 0
110 0 110 405 0 405 0 0 -110z"/>
</g>
</svg>
