<?xml version="1.0" standalone="no"?>
<!DOCTYPE svg PUBLIC "-//W3C//DTD SVG 20010904//EN"
 "http://www.w3.org/TR/2001/REC-SVG-20010904/DTD/svg10.dtd">
<svg version="1.0" xmlns="http://www.w3.org/2000/svg"
 width="512.000000pt" height="512.000000pt" viewBox="0 0 512.000000 512.000000"
 preserveAspectRatio="xMidYMid meet">

<g transform="translate(0.000000,512.000000) scale(0.100000,-0.100000)"
fill="#000000" stroke="none">
<path d="M230 4941 c-8 -4 -33 -16 -54 -27 -71 -35 -76 -55 -76 -329 0 -209 2
-245 18 -275 22 -44 75 -80 119 -80 l33 0 -2 357 c-2 227 -7 357 -13 359 -5 2
-17 -1 -25 -5z"/>
<path d="M430 4580 l0 -360 80 0 80 0 0 360 0 360 -80 0 -80 0 0 -360z"/>
<path d="M760 4580 l0 -360 80 0 80 0 0 360 0 360 -80 0 -80 0 0 -360z"/>
<path d="M1090 4580 l0 -360 26 0 c37 0 86 26 109 58 19 25 20 45 23 294 2
227 1 272 -13 297 -17 34 -52 55 -107 65 l-38 7 0 -361z"/>
<path d="M1422 4578 l3 -103 1783 -3 c1218 -1 1789 1 1803 8 16 9 19 22 19 86
0 41 -5 84 -10 95 -11 19 -41 19 -1806 19 l-1795 0 3 -102z"/>
<path d="M1410 4292 c0 -35 -52 -122 -96 -161 -72 -63 -109 -71 -331 -71
l-193 0 0 -1887 c0 -1854 0 -1889 20 -1920 10 -18 31 -40 47 -50 26 -17 80
-18 1033 -18 953 0 1007 1 1033 18 16 10 37 32 47 50 19 31 20 54 20 542 l0
510 -108 110 c-195 201 -311 414 -368 675 -26 119 -26 390 -1 510 57 267 178
490 371 682 49 48 93 88 97 88 5 0 9 210 9 470 l0 470 -790 0 c-755 0 -790 -1
-790 -18z m746 -471 c61 -44 222 -216 229 -244 9 -34 -14 -79 -46 -91 -38 -13
-74 -1 -119 40 l-40 36 0 -371 0 -371 48 -24 c95 -48 156 -147 155 -252 -1
-156 -126 -279 -282 -278 -163 1 -275 114 -275 279 0 114 52 203 145 251 l49
24 0 372 0 371 -50 -47 c-35 -33 -57 -46 -78 -46 -44 0 -72 28 -79 77 l-5 42
108 112 c109 112 155 149 185 149 9 0 34 -13 55 -29z m-679 -499 c62 -64 116
-128 119 -141 10 -36 -7 -73 -44 -94 -40 -23 -80 -13 -129 35 l-33 32 0 -372
0 -372 49 -24 c91 -47 145 -137 145 -246 0 -160 -125 -285 -283 -284 -80 1
-125 19 -184 73 -117 108 -122 295 -12 406 21 21 58 46 82 57 l43 19 0 371 0
370 -40 -36 c-27 -24 -50 -36 -70 -36 -55 0 -94 64 -68 113 13 26 197 218 233
244 40 29 73 9 192 -115z m623 -1733 c271 -74 476 -275 562 -549 20 -64 23
-96 23 -215 -1 -131 -3 -146 -33 -237 -51 -153 33 -138 -761 -138 -539 1 -679
3 -693 14 -23 17 -55 93 -79 185 -37 143 -19 348 42 486 110 250 346 432 614
475 86 13 238 4 325 -21z"/>
<path d="M2014 2616 c-26 -26 -34 -42 -34 -70 0 -72 47 -126 108 -126 70 0
122 52 122 122 0 61 -54 108 -126 108 -28 0 -44 -8 -70 -34z"/>
<path d="M1252 2240 c-94 -58 -52 -220 58 -220 97 0 161 107 111 184 -38 58
-109 73 -169 36z"/>
<path d="M1740 1434 c-230 -60 -417 -255 -466 -485 -17 -80 -14 -233 6 -301
l11 -38 259 0 260 0 0 144 c0 141 1 145 26 175 34 40 80 42 115 5 23 -24 24
-33 27 -175 l3 -149 257 2 257 3 14 40 c10 26 15 82 15 160 0 109 -3 128 -30
205 -38 109 -88 183 -176 265 -77 71 -175 125 -273 150 -74 19 -232 19 -305
-1z"/>
<path d="M3720 3985 l0 -325 80 0 80 0 0 325 0 325 -80 0 -80 0 0 -325z"/>
<path d="M3650 3483 c-385 -60 -707 -289 -872 -618 -88 -174 -122 -320 -122
-520 0 -315 104 -570 324 -799 206 -213 471 -332 770 -343 215 -8 382 27 568
121 676 340 837 1246 319 1801 -223 240 -523 368 -852 364 -60 -1 -121 -3
-135 -6z m201 -122 c24 -25 29 -38 29 -80 0 -64 -29 -102 -79 -103 -51 -2 -81
37 -81 105 1 54 11 75 45 95 32 18 55 14 86 -17z m-507 -111 c34 -13 86 -86
86 -122 0 -36 -43 -78 -79 -78 -68 0 -130 99 -105 165 5 13 48 40 71 45 1 0
13 -4 27 -10z m977 0 c21 0 49 -42 49 -73 0 -33 -33 -89 -67 -114 -47 -35
-123 7 -123 67 0 59 76 138 118 124 8 -2 18 -4 23 -4z m-1295 -366 c51 -34 64
-52 64 -89 0 -64 -60 -101 -117 -72 -51 27 -83 64 -83 97 0 82 64 112 136 64z
m1660 5 c23 -19 28 -76 10 -104 -28 -43 -90 -78 -125 -70 -67 15 -83 96 -29
147 18 17 42 34 53 39 23 10 72 4 91 -12z m-547 -360 c179 -56 336 -108 349
-116 38 -24 46 -60 21 -99 -11 -19 -28 -38 -37 -43 -34 -17 -639 -201 -663
-201 -46 0 -660 197 -682 219 -28 27 -28 85 0 112 13 13 117 51 294 106 151
47 299 93 329 103 30 10 57 18 59 19 1 1 150 -44 330 -100z m-1192 -133 c29
-34 29 -68 0 -101 -27 -32 -92 -44 -138 -25 -62 26 -69 113 -10 145 42 24 119
14 148 -19z m1862 8 c54 -45 35 -123 -34 -140 -67 -17 -145 26 -145 79 0 77
114 116 179 61z m-1760 -439 c32 -16 41 -33 41 -74 0 -32 -12 -48 -62 -86 -31
-22 -44 -26 -73 -21 -67 13 -89 95 -37 143 25 23 76 52 95 53 4 0 21 -7 36
-15z m1574 6 c14 -5 41 -24 61 -41 45 -40 49 -87 11 -125 -34 -35 -73 -32
-129 10 -39 31 -46 41 -46 71 0 44 15 72 43 84 29 12 32 12 60 1z m-1234 -346
c51 -26 54 -68 11 -135 -35 -55 -73 -69 -119 -45 -47 24 -55 75 -20 131 38 62
76 77 128 49z m893 6 c50 -19 91 -107 72 -156 -12 -29 -61 -47 -97 -35 -38 12
-87 77 -87 115 0 64 52 99 112 76z m-422 -149 c14 -17 20 -40 20 -74 0 -41 -5
-54 -29 -79 -16 -16 -37 -29 -46 -29 -21 0 -57 19 -72 39 -18 23 -16 112 3
139 32 46 90 48 124 4z"/>
<path d="M3631 2404 c-90 -29 -165 -55 -168 -58 -2 -2 72 -29 166 -59 l171
-55 167 55 c92 30 169 56 171 57 2 3 -265 91 -331 110 -7 2 -86 -20 -176 -50z"/>
<path d="M3450 976 l0 -106 350 0 350 0 0 105 c0 58 -3 105 -7 105 -5 0 -55
-9 -113 -21 -168 -33 -334 -28 -547 17 l-33 7 0 -107z"/>
<path d="M3460 647 c0 -36 5 -68 12 -75 18 -18 647 -17 672 1 14 10 17 25 14
72 l-3 60 -347 3 -348 2 0 -63z"/>
</g>
</svg>
