<?xml version="1.0" standalone="no"?>
<!DOCTYPE svg PUBLIC "-//W3C//DTD SVG 20010904//EN"
 "http://www.w3.org/TR/2001/REC-SVG-20010904/DTD/svg10.dtd">
<svg version="1.0" xmlns="http://www.w3.org/2000/svg"
 width="512.000000pt" height="512.000000pt" viewBox="0 0 512.000000 512.000000"
 preserveAspectRatio="xMidYMid meet">

<g transform="translate(0.000000,512.000000) scale(0.100000,-0.100000)"
fill="#000000" stroke="none">
<path d="M3117 4570 c-72 -13 -131 -46 -185 -104 -77 -85 -82 -112 -82 -422
l0 -264 168 0 c227 0 309 -25 423 -127 l47 -43 514 0 515 0 21 -23 c29 -31 28
-72 -3 -102 l-24 -25 -472 0 -471 0 7 -22 c4 -13 10 -92 12 -175 l5 -153 460
0 459 0 24 -25 c32 -31 33 -74 2 -103 -23 -22 -25 -22 -485 -22 l-462 0 0
-180 0 -180 465 0 464 0 21 -22 c25 -27 26 -69 1 -99 l-19 -24 -466 -3 -466
-3 0 -517 c0 -570 -1 -584 -62 -690 -39 -69 -120 -149 -184 -184 -86 -47 -152
-58 -332 -58 l-164 0 4 -73 c4 -98 42 -174 116 -234 94 -76 60 -74 933 -71
l774 3 57 28 c70 34 131 101 158 173 20 54 20 70 20 1768 0 1448 -2 1720 -14
1760 -26 86 -104 166 -198 204 -39 15 -110 17 -788 18 -410 1 -766 -2 -793 -6z
m1424 -479 c25 -30 24 -72 -1 -99 l-21 -22 -624 0 c-612 0 -625 0 -645 20 -34
34 -21 102 23 120 12 5 294 8 635 7 l614 -2 19 -24z m-556 -2315 c201 -93 206
-374 9 -472 -53 -26 -174 -26 -225 -1 -158 78 -197 280 -80 410 48 54 121 87
191 87 37 0 72 -8 105 -24z"/>
<path d="M412 3609 c-74 -29 -153 -110 -181 -184 -21 -57 -21 -59 -19 -1048
l3 -992 24 -47 c31 -63 88 -121 153 -155 l53 -28 1370 0 c1329 0 1372 1 1420
19 65 26 147 103 176 169 l24 52 0 1000 0 1000 -28 53 c-35 67 -90 122 -153
153 l-49 24 -1370 2 c-1360 2 -1370 2 -1423 -18z m2728 -1074 l0 -795 -1315 0
-1315 0 0 795 0 795 1315 0 1315 0 0 -795z m-1127 -1012 c29 -33 31 -68 4 -99
l-25 -29 -152 -3 c-166 -4 -200 3 -219 44 -16 35 -14 48 10 78 l20 26 173 0
c152 0 175 -2 189 -17z"/>
<path d="M1210 845 l0 -155 -128 0 c-112 0 -131 -2 -145 -18 -24 -27 -22 -85
4 -108 20 -18 51 -19 853 -22 457 -2 846 0 864 3 66 12 95 82 52 125 -18 18
-33 20 -145 20 l-125 0 0 155 0 155 -615 0 -615 0 0 -155z"/>
</g>
</svg>
