<?xml version="1.0" standalone="no"?>
<!DOCTYPE svg PUBLIC "-//W3C//DTD SVG 20010904//EN"
 "http://www.w3.org/TR/2001/REC-SVG-20010904/DTD/svg10.dtd">
<svg version="1.0" xmlns="http://www.w3.org/2000/svg"
 width="512.000000pt" height="512.000000pt" viewBox="0 0 512.000000 512.000000"
 preserveAspectRatio="xMidYMid meet">

<g transform="translate(0.000000,512.000000) scale(0.100000,-0.100000)"
fill="#000000" stroke="none">
<path d="M2380 4894 c-14 -2 -59 -9 -100 -15 -661 -94 -1239 -584 -1451 -1230
-70 -213 -84 -312 -84 -574 1 -210 3 -241 28 -356 145 -683 641 -1212 1307
-1395 120 -33 309 -64 391 -64 l39 0 0 -132 -1 -133 -40 -19 c-24 -11 -51 -35
-67 -59 -26 -38 -27 -48 -30 -178 l-3 -138 -138 -3 c-131 -3 -140 -4 -179 -31
-23 -15 -51 -45 -62 -67 l-20 -40 -685 0 c-672 0 -685 0 -705 -20 -24 -24 -24
-29 -4 -58 l15 -22 689 0 690 0 19 -38 c23 -46 46 -67 94 -87 55 -23 899 -23
954 0 48 20 71 41 94 87 l19 38 690 0 689 0 15 22 c20 29 20 34 -4 58 -20 20
-33 20 -705 20 l-685 0 -20 40 c-11 22 -39 52 -62 67 -39 27 -48 28 -180 31
l-138 4 0 124 c0 165 -19 213 -102 255 l-38 19 0 128 0 128 128 12 c407 39
784 212 1079 495 279 268 457 594 535 978 20 99 23 144 23 339 0 195 -3 240
-23 339 -78 387 -259 715 -541 983 -258 246 -582 410 -931 473 -90 16 -439 30
-500 19z m475 -359 c291 -60 535 -193 751 -409 264 -264 409 -580 432 -938 l7
-108 -46 0 -47 0 -7 88 c-40 512 -335 947 -789 1162 -165 79 -323 121 -508
135 l-88 7 0 46 0 45 108 -6 c59 -3 143 -13 187 -22z m-25 -614 c279 -95 484
-299 571 -570 184 -573 -240 -1154 -841 -1154 -460 0 -838 344 -880 801 -36
394 197 769 565 908 122 45 178 54 340 50 138 -2 157 -5 245 -35z m-1656 -928
c34 -424 230 -782 561 -1028 206 -153 440 -242 703 -268 l122 -11 0 -48 0 -47
-72 5 c-347 24 -668 154 -906 369 -302 272 -480 631 -499 1008 l-6 107 45 0
45 0 7 -87z"/>
<path d="M2417 3855 c-297 -57 -535 -276 -619 -572 -32 -111 -32 -295 0 -406
67 -233 216 -409 435 -512 97 -46 173 -65 287 -72 367 -21 698 220 802 584 32
111 32 295 0 407 -62 216 -206 393 -404 496 -146 76 -341 105 -501 75z m251
-290 c241 -57 408 -281 388 -522 -17 -217 -167 -393 -381 -448 -288 -74 -583
140 -611 443 -30 329 283 602 604 527z"/>
<path d="M2438 3461 c-31 -10 -72 -28 -91 -40 -54 -33 -126 -116 -155 -179
-24 -50 -27 -69 -27 -162 0 -99 2 -110 32 -171 40 -80 120 -159 200 -197 52
-24 70 -27 163 -27 99 0 110 2 171 32 80 40 159 120 197 200 24 52 27 70 27
163 0 98 -2 109 -32 171 -42 86 -129 168 -210 200 -81 31 -199 35 -275 10z"/>
</g>
</svg>
