<?xml version="1.0" standalone="no"?>
<!DOCTYPE svg PUBLIC "-//W3C//DTD SVG 20010904//EN"
 "http://www.w3.org/TR/2001/REC-SVG-20010904/DTD/svg10.dtd">
<svg version="1.0" xmlns="http://www.w3.org/2000/svg"
 width="512.000000pt" height="512.000000pt" viewBox="0 0 512.000000 512.000000"
 preserveAspectRatio="xMidYMid meet">

<g transform="translate(0.000000,512.000000) scale(0.100000,-0.100000)"
fill="#000000" stroke="none">
<path d="M1873 5000 c-65 -13 -108 -38 -153 -87 -73 -79 -74 -84 -78 -395 l-3
-278 -56 0 c-116 0 -207 -55 -258 -155 l-30 -59 -3 -277 -4 -278 -291 -3 -292
-3 -63 -34 c-70 -38 -120 -92 -154 -167 l-23 -49 -3 -824 c-2 -729 -1 -830 13
-879 39 -133 137 -219 276 -242 40 -6 372 -10 897 -10 l832 0 -2 -206 -3 -206
-52 -20 c-97 -36 -192 -144 -219 -247 l-11 -46 -732 -5 c-711 -5 -733 -6 -747
-24 -22 -30 -17 -79 9 -104 l23 -22 730 0 729 0 19 -45 c41 -102 164 -195 279
-213 158 -25 335 71 393 213 l19 45 731 0 731 0 21 23 c25 27 29 74 8 103 -14
18 -36 19 -747 24 l-732 5 -11 46 c-27 103 -122 211 -219 247 l-52 20 -3 206
-2 206 832 0 c525 0 857 4 897 10 139 23 237 109 276 242 14 49 15 150 13 879
l-3 824 -26 56 c-34 72 -96 134 -168 168 -56 26 -56 26 -343 29 l-287 3 -3
277 c-3 257 -5 280 -24 323 -49 105 -130 159 -250 167 l-73 5 -3 276 c-3 267
-4 278 -27 324 -28 57 -104 127 -157 147 -32 12 -160 15 -709 16 -368 1 -689
-2 -712 -6z m1387 -165 c62 -32 60 -11 60 -720 l0 -645 -760 0 -760 0 0 645
c0 706 -1 687 58 719 41 23 1359 23 1402 1z m-1620 -1055 l0 -310 -95 0 -95 0
0 268 c0 230 2 271 16 291 27 38 75 61 127 61 l47 0 0 -310z m1954 296 c18 -7
42 -26 54 -41 21 -27 22 -36 22 -296 l0 -269 -95 0 -95 0 0 310 0 310 40 0
c22 0 55 -6 74 -14z m801 -775 c46 -20 91 -69 103 -109 4 -15 7 -124 7 -242
l0 -215 -1945 0 -1945 0 -3 203 c-1 120 2 219 8 242 14 51 55 98 105 121 38
18 115 19 1835 19 1720 0 1797 -1 1835 -19z m113 -1233 l-3 -513 -27 -47 c-19
-32 -41 -52 -71 -67 -41 -20 -60 -21 -309 -21 l-266 0 -4 278 c-3 265 -4 279
-26 324 -13 25 -43 65 -68 88 -88 81 9 75 -1174 75 l-1055 0 -47 -23 c-25 -13
-65 -43 -88 -68 -73 -79 -74 -85 -78 -397 l-4 -278 -277 3 c-277 3 -278 3
-314 28 -20 13 -46 43 -59 65 l-23 40 -3 513 -3 512 1951 0 1951 0 -3 -512z
m-898 -53 c57 -29 60 -48 60 -335 l0 -260 -1110 0 -1110 0 0 260 c0 213 3 266
15 290 32 62 -28 59 1093 60 895 0 1027 -2 1052 -15z m-952 -1336 c50 -25 97
-84 113 -142 36 -136 -83 -277 -225 -265 -33 3 -70 14 -99 31 -151 89 -131
320 33 386 45 18 130 13 178 -10z"/>
<path d="M3460 3234 c-134 -58 -177 -230 -86 -348 34 -46 117 -86 175 -86 202
1 301 252 154 392 -59 56 -167 75 -243 42z m138 -154 c32 -30 30 -82 -4 -109
-15 -12 -34 -21 -44 -21 -32 0 -70 39 -70 73 0 65 72 99 118 57z"/>
<path d="M4016 3230 c-82 -41 -126 -112 -126 -202 1 -124 103 -228 224 -228
116 0 226 110 226 226 0 83 -58 170 -135 205 -53 25 -139 24 -189 -1z m135
-141 c49 -26 43 -107 -10 -129 -75 -31 -134 58 -76 115 26 27 54 31 86 14z"/>
</g>
</svg>
